# xmcd
#
# Track frame offsets: 
#        150
#        19558
#        40184
#        65667
#        83461
#        104418
#        128746
#        140321
#        162874
#        180295
#        204257
#        229673
#        253054
#        269584
#
# Disc length: 3869 seconds
#
# Revision: 0
# Processed by: cddbd v1.5.2PL0 Copyright (c) Steve Scherf et al.
# Submitted via: ExactAudioCopy v1.0b3
#
DISCID=b10f1b0e
DTITLE=Thanh Tuyen - Nhung Tinh Khuc Bat Hu 2
DYEAR=2001
DGENRE=
TTITLE0=Bong nho duong chieu
TTITLE1=Xin thoi gian qua mau
TTITLE2=Neu ai co hoi
TTITLE3=Tinh yeu tra lai trang sao
TTITLE4=Chuyen tau hoang hon
TTITLE5=Ngay xua anh noi
TTITLE6=Thuyen khong ben do
TTITLE7=Gio chuyen mua thuong
TTITLE8=Thuong ve vung hoa tuyen
TTITLE9=Suong trang mien que ngoai
TTITLE10=Sau thang quan truong
TTITLE11=Nhip cau tri am
TTITLE12=Cay dang tinh doi
TTITLE13=Thanh Tuyen, Tuan Vu - Tinh bo vo
EXTD=
EXTT0=
EXTT1=
EXTT2=
EXTT3=
EXTT4=
EXTT5=
EXTT6=
EXTT7=
EXTT8=
EXTT9=
EXTT10=
EXTT11=
EXTT12=
EXTT13=
PLAYORDER=
